<svg xmlns="http://www.w3.org/2000/svg" width="35.952" height="41.84" viewBox="0 0 35.952 41.84">
  <g id="group" transform="translate(-33.894)">
    <path id="Path_26" data-name="Path 26" d="M174.247,0H151.012a1.123,1.123,0,0,0-1.134,1.134V3.449H163.31a1.123,1.123,0,0,1,1.134,1.134V16.654h4.175l4.72,6.308a1.184,1.184,0,0,0,.908.454,1,1,0,0,0,.363-.045,1.132,1.132,0,0,0,.771-1.089V1.134A1.124,1.124,0,0,0,174.247,0Z" transform="translate(-105.91 0)" fill="#92babb"/>
    <g id="Group_3" data-name="Group 3" transform="translate(33.894 2.995)">
      <path id="Path_27" data-name="Path 27" d="M58.989,35.616a1.123,1.123,0,0,0-1.134-1.134H35.028a1.123,1.123,0,0,0-1.134,1.134V55.9a1.176,1.176,0,0,0,.771,1.089,1,1,0,0,0,.363.045,1.185,1.185,0,0,0,.908-.454L40.7,50.229H57.855a1.123,1.123,0,0,0,1.134-1.134V35.616Z" transform="translate(-33.894 -34.482)" fill="#d4e1f4"/>
      <path id="Path_28" data-name="Path 28" d="M290.673,286.988a7.584,7.584,0,0,0-5.491-7.125,5.129,5.129,0,0,0,3.131-4.674,5.083,5.083,0,1,0-7.079,4.674,7.473,7.473,0,0,0-5.446,7.215v.272a1.123,1.123,0,0,0,1.134,1.134h12.661a1.118,1.118,0,0,0,.862-.408,1.144,1.144,0,0,0,.272-.908Z" transform="translate(-254.778 -249.641)" fill="#d4e1f4"/>
    </g>
    <path id="Path_29" data-name="Path 29" d="M45.379,279.864a5.083,5.083,0,1,0-3.993,0,7.569,7.569,0,0,0-5.4,7.215v.272a1.123,1.123,0,0,0,1.134,1.134H49.736a1.123,1.123,0,0,0,1.134-1.134v-.272A7.6,7.6,0,0,0,45.379,279.864Z" transform="translate(-1.91 -246.646)" fill="#92babb"/>
    <g id="Group_4" data-name="Group 4" transform="translate(39.34 7.896)">
      <path id="Path_30" data-name="Path 30" d="M97.722,93.176h5.536a1.134,1.134,0,0,0,0-2.269H97.722a1.134,1.134,0,0,0,0,2.269Z" transform="translate(-96.588 -90.907)" fill="#3a2c51"/>
      <path id="Path_31" data-name="Path 31" d="M97.722,137.061h12.252a1.134,1.134,0,0,0,0-2.269H97.722a1.134,1.134,0,0,0,0,2.269Z" transform="translate(-96.588 -130.98)" fill="#3a2c51"/>
    </g>
  </g>
</svg>
