<svg xmlns="http://www.w3.org/2000/svg" width="39.514" height="39.514" viewBox="0 0 39.514 39.514">
  <g id="logout" transform="translate(0 -0.004)">
    <path id="Path_32" data-name="Path 32" d="M47.657,21.407a4.939,4.939,0,1,1,0-9.878H50.95V4.943A4.945,4.945,0,0,0,46.01,0h-17.7a1.645,1.645,0,0,0-1.538,2.232L38.71,33.518a1.643,1.643,0,0,0,1.538,1.06H46.01a4.945,4.945,0,0,0,4.939-4.939V21.407Zm0,0" transform="translate(-24.607)" fill="#d0898a"/>
    <path id="Path_33" data-name="Path 33" d="M286.58,123a1.649,1.649,0,0,1-1.016-1.521v-4.939h-6.586a1.646,1.646,0,1,1,0-3.293h6.586v-4.939a1.646,1.646,0,0,1,2.81-1.164l6.586,6.586a1.645,1.645,0,0,1,0,2.328l-6.586,6.586A1.647,1.647,0,0,1,286.58,123Zm0,0" transform="translate(-255.929 -98.43)" fill="#607d8b"/>
    <path id="Path_34" data-name="Path 34" d="M14.235,3.525,4.342.228A3.315,3.315,0,0,0,0,3.357V32.993a3.31,3.31,0,0,0,2.229,3.125l9.891,3.3a3.484,3.484,0,0,0,1.051.163,3.3,3.3,0,0,0,3.293-3.293V6.65A3.31,3.31,0,0,0,14.235,3.525Zm0,0" transform="translate(0 -0.061)" fill="#e9baba"/>
  </g>
</svg>
