<svg xmlns="http://www.w3.org/2000/svg" xmlns:xlink="http://www.w3.org/1999/xlink" width="375" height="412" viewBox="0 0 375 412">
  <defs>
    <clipPath id="clip-path">
      <rect id="Rectangle_14" data-name="Rectangle 14" width="375" height="412" fill="#fff" stroke="#707070" stroke-width="1"/>
    </clipPath>
    <linearGradient id="linear-gradient" x1="0.5" x2="0.5" y2="1" gradientUnits="objectBoundingBox">
      <stop offset="0" stop-color="#85b2b3"/>
      <stop offset="0.719" stop-color="#89b4b5" stop-opacity="0.886"/>
      <stop offset="1" stop-color="#fff"/>
    </linearGradient>
  </defs>
  <g id="Mask_Group_1" data-name="Mask Group 1" clip-path="url(#clip-path)">
    <g id="Group_274" data-name="Group 274">
      <g id="Component_1_1" data-name="Component 1 – 1" transform="translate(-101)">
        <rect id="Rectangle_1" data-name="Rectangle 1" width="375" height="422" transform="translate(101)" fill="url(#linear-gradient)"/>
        <ellipse id="Ellipse_1" data-name="Ellipse 1" cx="170.5" cy="131.5" rx="170.5" ry="131.5" transform="translate(0 316)" fill="rgba(255,255,255,0.26)"/>
        <ellipse id="Ellipse_2" data-name="Ellipse 2" cx="170.5" cy="140.5" rx="170.5" ry="140.5" transform="translate(36 375)" fill="rgba(255,255,255,0.26)"/>
        <ellipse id="Ellipse_3" data-name="Ellipse 3" cx="170.5" cy="120.5" rx="170.5" ry="120.5" transform="translate(218 354)" fill="rgba(255,255,255,0.26)"/>
        <g id="cloud" transform="translate(126.5 13.532)" opacity="0.385">
          <path id="Path_1" data-name="Path 1" d="M42.711,74.524h5.566a16.351,16.351,0,0,1,9.9-7.909,5.735,5.735,0,0,0-7.015-3.288c0-.087.007-.174.007-.262a7.705,7.705,0,0,0-15.22-1.7,4.625,4.625,0,0,0-5.267,1.756,5.8,5.8,0,1,0-1.458,11.407h9.267" transform="translate(-20.017)" fill="#fff"/>
          <path id="Path_2" data-name="Path 2" d="M54.351,132.557a16.317,16.317,0,0,0-27.835,7.532,9.789,9.789,0,0,0-11.154,3.718,12.276,12.276,0,1,0-3.087,24.157H25.808a7.6,7.6,0,0,1,9.871-7.2c0-.115-.009-.23-.009-.347a10.218,10.218,0,0,1,20.183-2.261,6.13,6.13,0,0,1,6.984,2.329,7.695,7.695,0,0,1,8.523,3.485,12.136,12.136,0,0,0-12.628-19.719c.006-.184.014-.368.014-.553a16.244,16.244,0,0,0-1.869-7.59" transform="translate(0 -61.541)" fill="#fff"/>
          <path id="Path_3" data-name="Path 3" d="M13.014,237.606q-.367-.022-.74-.023a12.275,12.275,0,0,0,0,24.549H25.808a7.563,7.563,0,0,1,.941-3.612A38.092,38.092,0,0,1,13.014,237.606Z" transform="translate(0 -155.709)" fill="#fff"/>
          <path id="Path_4" data-name="Path 4" d="M31.893,106.924A38.047,38.047,0,0,1,33.639,95.5a4.625,4.625,0,0,0-2.959,1.916,5.8,5.8,0,1,0-1.458,11.407h2.718Q31.894,107.879,31.893,106.924Z" transform="translate(-20.018 -34.298)" fill="#fff"/>
          <path id="Path_5" data-name="Path 5" d="M216.327,292.024a7.694,7.694,0,0,0-1.933.246,6.13,6.13,0,0,0-6.984-2.329,10.218,10.218,0,0,0-20.183,2.261c0,.116.005.232.009.347a7.6,7.6,0,1,0-2.275,14.848h31.366a7.686,7.686,0,1,0,0-15.372Z" transform="translate(-151.557 -193.649)" fill="#e4f2f9"/>
          <path id="Path_6" data-name="Path 6" d="M193.061,292.287a18.935,18.935,0,0,1,1.627-7.7,10.221,10.221,0,0,0-7.464,9.84c0,.116.005.232.009.347a7.6,7.6,0,1,0-2.275,14.848h19.3A19,19,0,0,1,193.061,292.287Z" transform="translate(-151.555 -195.871)" fill="#d7edf9"/>
        </g>
        <g id="cloud-2" data-name="cloud" transform="translate(388.5 189.532)" opacity="0.385">
          <path id="Path_2-2" data-name="Path 2" d="M54.351,132.557a16.317,16.317,0,0,0-27.835,7.532,9.789,9.789,0,0,0-11.154,3.718,12.276,12.276,0,1,0-3.087,24.157H25.808a7.6,7.6,0,0,1,9.871-7.2c0-.115-.009-.23-.009-.347a10.218,10.218,0,0,1,20.183-2.261,6.13,6.13,0,0,1,6.984,2.329,7.695,7.695,0,0,1,8.523,3.485,12.136,12.136,0,0,0-12.628-19.719c.006-.184.014-.368.014-.553a16.244,16.244,0,0,0-1.869-7.59" transform="translate(0 -61.541)" fill="#fff"/>
          <path id="Path_3-2" data-name="Path 3" d="M13.014,237.606q-.367-.022-.74-.023a12.275,12.275,0,0,0,0,24.549H25.808a7.563,7.563,0,0,1,.941-3.612A38.092,38.092,0,0,1,13.014,237.606Z" transform="translate(0 -155.709)" fill="#fff"/>
          <path id="Path_5-2" data-name="Path 5" d="M216.327,292.024a7.694,7.694,0,0,0-1.933.246,6.13,6.13,0,0,0-6.984-2.329,10.218,10.218,0,0,0-20.183,2.261c0,.116.005.232.009.347a7.6,7.6,0,1,0-2.275,14.848h31.366a7.686,7.686,0,1,0,0-15.372Z" transform="translate(-151.557 -193.649)" fill="#e4f2f9"/>
          <path id="Path_6-2" data-name="Path 6" d="M193.061,292.287a18.935,18.935,0,0,1,1.627-7.7,10.221,10.221,0,0,0-7.464,9.84c0,.116.005.232.009.347a7.6,7.6,0,1,0-2.275,14.848h19.3A19,19,0,0,1,193.061,292.287Z" transform="translate(-151.555 -195.871)" fill="#d7edf9"/>
        </g>
        <g id="cloud-3" data-name="cloud" transform="translate(408.116 85.719)" opacity="0.253">
          <path id="Path_2-3" data-name="Path 2" d="M37.121,130.916A11.144,11.144,0,0,0,18.11,136.06a6.686,6.686,0,0,0-7.618,2.54,8.384,8.384,0,1,0-2.108,16.5h9.243a5.192,5.192,0,0,1,6.742-4.917c0-.079-.006-.157-.006-.237A6.979,6.979,0,0,1,38.147,148.4a4.186,4.186,0,0,1,4.77,1.591,5.255,5.255,0,0,1,5.821,2.38A8.289,8.289,0,0,0,40.113,138.9c0-.126.01-.251.01-.378a11.1,11.1,0,0,0-1.276-5.184" transform="translate(0 -61.541)" fill="#fff"/>
          <path id="Path_3-3" data-name="Path 3" d="M8.888,237.6q-.251-.015-.505-.016a8.383,8.383,0,0,0,0,16.767h9.243a5.166,5.166,0,0,1,.642-2.467A26.017,26.017,0,0,1,8.888,237.6Z" transform="translate(0 -160.792)" fill="#fff"/>
          <path id="Path_5-3" data-name="Path 5" d="M203.975,288.841a5.255,5.255,0,0,0-1.32.168,4.186,4.186,0,0,0-4.77-1.591,6.979,6.979,0,0,0-13.785,1.544c0,.079,0,.158.006.237a5.189,5.189,0,1,0-1.554,10.141h21.423a5.249,5.249,0,1,0,0-10.5Z" transform="translate(-159.738 -200.78)" fill="#e4f2f9"/>
          <path id="Path_6-3" data-name="Path 6" d="M188.084,289.845a12.932,12.932,0,0,1,1.112-5.261,6.981,6.981,0,0,0-5.1,6.721c0,.079,0,.158.006.237a5.189,5.189,0,1,0-1.554,10.141h13.185A12.979,12.979,0,0,1,188.084,289.845Z" transform="translate(-159.736 -203.122)" fill="#d7edf9"/>
        </g>
      </g>
    </g>
  </g>
</svg>
