<svg xmlns="http://www.w3.org/2000/svg" width="67.776" height="74.142" viewBox="0 0 67.776 74.142">
  <g id="koala" transform="translate(-0.001)">
    <path id="Path_7" data-name="Path 7" d="M98.378,252.359c-5.169,3.686-13.266,4.281-19.249,4.281s-14.08-.6-19.249-4.281c-3.13,5.634-7.765,15.406-6.865,22.541,1.338,10.608,13.906,10.99,26.114,10.99s24.776-.382,26.114-10.99C106.143,267.765,101.508,257.993,98.378,252.359Zm0,0" transform="translate(-45.24 -215.816)" fill="#e6e2e6"/>
    <g id="Group_1" data-name="Group 1" transform="translate(0.001 2.005)">
      <path id="Path_8" data-name="Path 8" d="M79.139,391.631c-12.2,0-24.763-.382-26.112-10.974a17.372,17.372,0,0,0,0,3.962c1.338,10.608,13.906,10.99,26.114,10.99s24.776-.382,26.114-10.99a17.346,17.346,0,0,0,0-3.962C103.9,391.249,91.34,391.631,79.139,391.631Zm0,0" transform="translate(-45.25 -327.539)" fill="#d8d1d7"/>
      <path id="Path_9" data-name="Path 9" d="M351.967,30.243c.047-4.134-3.658-6.509-3.658-6.509.838-5.775-3.663-10.305-9.786-9.859A9.267,9.267,0,0,0,332.313,17a27.279,27.279,0,0,1,10.069,21.215,12.862,12.862,0,0,1-1.306,5.9,7.882,7.882,0,0,0,6.258.284c5.252-2.281,2.195-8.092,2.195-8.092A8.468,8.468,0,0,0,351.967,30.243Zm0,0" transform="translate(-284.191 -13.845)" fill="#d8d1d7"/>
      <path id="Path_10" data-name="Path 10" d="M9.586,38.213A27.279,27.279,0,0,1,19.656,17a9.267,9.267,0,0,0-6.21-3.123c-6.124-.446-10.625,4.084-9.786,9.859,0,0-3.705,2.375-3.658,6.509A8.468,8.468,0,0,0,2.44,36.308S-.617,42.119,4.635,44.4a7.88,7.88,0,0,0,6.258-.284A12.862,12.862,0,0,1,9.586,38.213Zm0,0" transform="translate(-0.001 -13.845)" fill="#d8d1d7"/>
    </g>
    <path id="Path_11" data-name="Path 11" d="M399.089,181.672a7.305,7.305,0,0,1-5.128.124,11.927,11.927,0,0,1-1.13,3.569,7.882,7.882,0,0,0,6.258.284c3.587-1.558,3.3-4.762,2.754-6.637A4.807,4.807,0,0,1,399.089,181.672Zm0,0" transform="translate(-335.946 -153.089)" fill="#cac0c9"/>
    <path id="Path_12" data-name="Path 12" d="M13.815,181.672a4.807,4.807,0,0,1-2.754-2.66c-.544,1.875-.833,5.08,2.754,6.637a7.882,7.882,0,0,0,6.258-.284,11.9,11.9,0,0,1-1.13-3.569A7.307,7.307,0,0,1,13.815,181.672Zm0,0" transform="translate(-9.18 -153.089)" fill="#cac0c9"/>
    <path id="Path_13" data-name="Path 13" d="M90.5,0c13.139,0,24.3,12.035,24.3,26.373,0,12.958-14.813,14.452-24.3,14.452S66.2,39.331,66.2,26.373C66.194,12.035,77.359,0,90.5,0Zm0,0" transform="translate(-56.609)" fill="#e6e2e6"/>
    <path id="Path_14" data-name="Path 14" d="M132.378,255.123c-.509-1-1.007-1.927-1.471-2.763-5.169,3.686-13.266,4.281-19.249,4.281s-14.08-.6-19.249-4.281c-.464.837-.963,1.767-1.471,2.763,4.982,4.774,14.132,5.5,20.72,5.5S127.4,259.9,132.378,255.123Zm0,0" transform="translate(-77.768 -215.816)" fill="#d8d1d7"/>
    <path id="Path_15" data-name="Path 15" d="M136.082,104.367a2.851,2.851,0,1,0,2.243,2.785A2.531,2.531,0,0,0,136.082,104.367Zm0,0" transform="translate(-114.458 -89.254)" fill="#433f43"/>
    <path id="Path_16" data-name="Path 16" d="M305.473,104.367a2.851,2.851,0,1,0,2.242,2.785A2.531,2.531,0,0,0,305.473,104.367Zm0,0" transform="translate(-259.319 -89.254)" fill="#433f43"/>
    <path id="Path_17" data-name="Path 17" d="M201.542,108.086a1.1,1.1,0,0,0-1.562-.05c-.536.5-.986.708-1.34.611a2.749,2.749,0,0,1-1.288-1.391,4.551,4.551,0,0,0,2.2-.743c1.279-.894,1.9-2.56,1.9-5.093a16.433,16.433,0,0,0-1.52-7c-1.106-2.255-2.6-3.5-4.212-3.5s-3.105,1.243-4.212,3.5a16.433,16.433,0,0,0-1.521,7c0,2.533.622,4.2,1.9,5.093a4.564,4.564,0,0,0,2.2.742h0a2.689,2.689,0,0,1-1.287,1.39c-.355.1-.8-.108-1.341-.611a1.1,1.1,0,0,0-1.511,1.612,3.528,3.528,0,0,0,3.439,1.129,4.278,4.278,0,0,0,2.331-1.933,4.277,4.277,0,0,0,2.33,1.933,2.858,2.858,0,0,0,.762.1,3.91,3.91,0,0,0,2.677-1.232A1.1,1.1,0,0,0,201.542,108.086Zm0,0" transform="translate(-162.147 -77.756)" fill="#433f43"/>
    <path id="Path_18" data-name="Path 18" d="M117.75,367.617s.459,19.8,6.587,19.8c5.43.006,6.457-18.211,6.457-18.211" transform="translate(-100.698 -314.383)" fill="#e6e2e6"/>
    <path id="Path_19" data-name="Path 19" d="M273.259,367.617s-.459,19.8-6.587,19.8c-5.43.006-6.457-18.211-6.457-18.211" transform="translate(-222.533 -314.383)" fill="#e6e2e6"/>
    <path id="Path_20" data-name="Path 20" d="M124.33,361.583a1.1,1.1,0,0,0-1.165,1.041,71.2,71.2,0,0,1-1.176,8.968q-.225,1.095-.48,2.059a4.485,4.485,0,0,1-3.681,1.927,4.769,4.769,0,0,1-3.9-1.879q-.338-1.313-.618-2.879a73.785,73.785,0,0,1-.983-9.751,1.1,1.1,0,0,0-2.209.051,74.547,74.547,0,0,0,1.013,10.066,27.768,27.768,0,0,0,2.071,7.1c1.2,2.465,2.751,3.716,4.607,3.718h0c2.888,0,4.963-3.267,6.344-9.986a72.077,72.077,0,0,0,1.213-9.268A1.105,1.105,0,0,0,124.33,361.583Zm0,0" transform="translate(-94.172 -307.86)" fill="#d8d1d7"/>
    <path id="Path_21" data-name="Path 21" d="M266.76,359.986a1.1,1.1,0,0,0-1.13,1.079,73.769,73.769,0,0,1-.983,9.752q-.279,1.565-.618,2.879a4.77,4.77,0,0,1-3.9,1.879,4.486,4.486,0,0,1-3.681-1.927q-.254-.965-.48-2.059a71.219,71.219,0,0,1-1.176-8.968,1.1,1.1,0,1,0-2.206.124,72.014,72.014,0,0,0,1.213,9.268c1.38,6.72,3.455,9.986,6.344,9.986h0c1.855,0,3.405-1.253,4.606-3.718a27.752,27.752,0,0,0,2.071-7.1,74.543,74.543,0,0,0,1.013-10.067A1.105,1.105,0,0,0,266.76,359.986Zm0,0" transform="translate(-216.008 -307.856)" fill="#d8d1d7"/>
  </g>
</svg>
