<svg xmlns="http://www.w3.org/2000/svg" width="34.511" height="29.778" viewBox="0 0 34.511 29.778">
  <g id="send" transform="translate(0 -35.111)">
    <path id="Path_35" data-name="Path 35" d="M34.511,50a3.28,3.28,0,0,1-2.055,3.078L4.611,64.633A3.332,3.332,0,0,1,.1,60.731l2.479-9.72L2.841,50l-.257-1.011L.1,39.27a3.332,3.332,0,0,1,4.506-3.9l13.226,5.488,14.619,6.066A3.28,3.28,0,0,1,34.511,50Z" transform="translate(0)" fill="#bae4e5"/>
    <path id="Path_36" data-name="Path 36" d="M2.583,257.012.1,266.732a3.332,3.332,0,0,0,4.506,3.9l27.845-11.554A3.281,3.281,0,0,0,34.511,256H2.841Z" transform="translate(0 -206.001)" fill="#769c9d"/>
    <path id="Path_37" data-name="Path 37" d="M51.476,242.011a1.011,1.011,0,0,1-1.011,1.011H38.331l.257-1.011L38.331,241H50.465A1.011,1.011,0,0,1,51.476,242.011Z" transform="translate(-35.748 -192.011)" fill="#efefef"/>
    <path id="Path_38" data-name="Path 38" d="M38.331,257.012H50.465A1.011,1.011,0,0,0,51.476,256H38.588Z" transform="translate(-35.748 -206.001)" fill="#c5d8df"/>
  </g>
</svg>
